<svg version="1.1" xmlns="http://www.w3.org/2000/svg" xmlns:xlink="http://www.w3.org/1999/xlink" width="24px" height="24px" viewBox="0,0,256,256"><g fill="#dbb7ff" fill-rule="nonzero" stroke="none" stroke-width="1" stroke-linecap="butt" stroke-linejoin="miter" stroke-miterlimit="10" stroke-dasharray="" stroke-dashoffset="0" font-family="none" font-weight="none" font-size="none" text-anchor="none" style="mix-blend-mode: normal"><g transform="scale(4,4)"><path d="M27,0c-0.40942,-0.00045 -0.77776,0.24872 -0.92969,0.62891l-1.79883,4.5l-4.4707,0.89063c-0.46615,0.09477 -0.80103,0.50478 -0.80078,0.98047v6c0,0.55228 0.44772,1 1,1h3.14258c0.50357,1.95031 2.37879,3.22193 4.377,2.96812c1.99821,-0.25381 3.49598,-1.95385 3.49598,-3.96812c0,-2.01427 -1.49777,-3.71431 -3.49598,-3.96812c-1.99821,-0.25381 -3.87343,1.01781 -4.377,2.96812h-2.14258v-4.18164l4.19922,-0.83789c0.33217,-0.06569 0.60854,-0.29502 0.73438,-0.60937l1.74414,-4.37109h4.32227v3h-2c-0.55228,0 -1,0.44772 -1,1c0,0.55228 0.44772,1 1,1h10.90039l4.09961,0.81836v4.18164c-0.55228,0 -1,0.44772 -1,1c0,0.55228 0.44772,1 1,1h1c0.55228,0 1,-0.44772 1,-1v-6c0.00024,-0.47568 -0.33463,-0.8857 -0.80078,-0.98047l-4.46875,-0.89258l-1.79883,-4.5c-0.15282,-0.38008 -0.52199,-0.62852 -0.93164,-0.62695zM34,2h4.32227l1.20117,3h-5.52344zM39,9c-1.8182,0.00708 -3.40288,1.23952 -3.85742,3h-2.14258c-0.55228,0 -1,0.44772 -1,1c0,0.55228 0.44772,1 1,1h2.14258c0.52323,2.00766 2.49684,3.28014 4.54148,2.92809c2.04464,-0.35204 3.47903,-2.2113 3.30068,-4.27835c-0.17835,-2.06705 -1.91001,-3.65313 -3.98473,-3.64974zM27,11c1.10457,0 2,0.89543 2,2c0,1.10457 -0.89543,2 -2,2c-1.10457,0 -2,-0.89543 -2,-2c0,-1.10457 0.89543,-2 2,-2zM38.91602,11.00195c0.54449,-0.02288 1.07474,0.17741 1.46812,0.55457c0.39338,0.37716 0.61581,0.89851 0.61587,1.44348c0,1.10457 -0.89543,2 -2,2c-1.08654,-0.00232 -1.97246,-0.87169 -1.99528,-1.95799c-0.02282,-1.0863 0.82582,-1.99211 1.9113,-2.04005zM19.99414,15c-0.20139,0.00879 -0.39541,0.07823 -0.55664,0.19922c-1.38304,1.03003 -2.63514,2.22507 -3.72852,3.55859c-0.24335,0.2993 -0.29286,0.71187 -0.12722,1.06025c0.16563,0.34837 0.51687,0.57042 0.90261,0.57061c0.30184,-0.00004 0.58751,-0.13642 0.77734,-0.37109c0.98932,-1.20616 2.12277,-2.28648 3.375,-3.2168c0.35221,-0.26251 0.49186,-0.72414 0.34423,-1.13787c-0.14763,-0.41373 -0.54798,-0.68267 -0.98681,-0.66291zM44.09375,15.10156c-0.43121,0.00439 -0.81105,0.28471 -0.94235,0.69547c-0.1313,0.41076 0.01551,0.85943 0.36422,1.11312c0.82039,0.62968 1.58912,1.32395 2.29883,2.07617c0.18908,0.2008 0.4527,0.31459 0.72852,0.31445h0.00586c0.39956,0.00015 0.76085,-0.23755 0.91886,-0.60454c0.15801,-0.36699 0.0824,-0.79281 -0.1923,-1.08296c-0.78538,-0.8308 -1.63645,-1.59695 -2.54492,-2.29101c-0.18031,-0.14502 -0.40534,-0.22302 -0.63672,-0.2207zM52.85352,16.00391c-2.53714,0.07512 -4.61543,2.03932 -4.83353,4.56818c-0.2181,2.52886 1.4932,4.8199 3.98002,5.3283v1.48438l-0.55273,-0.27734c-0.49145,-0.23084 -1.07731,-0.02754 -1.32013,0.4581c-0.24282,0.48564 -0.05394,1.07631 0.4256,1.33096l1.44727,0.7207v1.38281c0,0.55228 0.44772,1 1,1c0.55228,0 1,-0.44772 1,-1v-5.09961c2.32699,-0.47776 3.99796,-2.52487 4,-4.90039c-0.00048,-1.35118 -0.54778,-2.64465 -1.51727,-3.5858c-0.96949,-0.94116 -2.27861,-1.44988 -3.62921,-1.41029zM52.875,18.00195c0.81674,-0.03406 1.61201,0.26664 2.20189,0.83256c0.58988,0.56592 0.92329,1.34804 0.92311,2.16549c0,1.65685 -1.34315,3 -3,3c-1.6396,0.01002 -2.98352,-1.29817 -3.01768,-2.93744c-0.03416,-1.63927 1.25409,-3.00231 2.89268,-3.06061zM10.96289,19c-0.14268,0.00547 -0.28254,0.04143 -0.41016,0.10547l-10,5c-0.47954,0.25465 -0.66841,0.84532 -0.42559,1.33096c0.24282,0.48564 0.82868,0.68894 1.32013,0.4581l0.55273,-0.27734v10.38281c0,0.55228 0.44772,1 1,1h16c0.55228,0 1,-0.44772 1,-1v-10.38281l0.55273,0.27734c0.49145,0.23084 1.07731,0.02754 1.32013,-0.4581c0.24282,-0.48564 0.05394,-1.07631 -0.4256,-1.33096l-10,-5c-0.15005,-0.07525 -0.31662,-0.11152 -0.48437,-0.10547zM11,21.11719l7,3.5v10.38281h-8v-4h2v2c0,0.55228 0.44772,1 1,1c0.55228,0 1,-0.44772 1,-1v-3c0,-0.55228 -0.44772,-1 -1,-1h-4c-0.55228,0 -1,0.44772 -1,1v5h-4v-10.38281zM9.95898,25c-0.55228,0.01133 -0.99082,0.46822 -0.97949,1.02051c0.01133,0.55228 0.46822,0.99082 1.02051,0.97949h2c0.55228,0 1,-0.44772 1,-1c0,-0.55228 -0.44772,-1 -1,-1h-2c-0.01367,-0.00028 -0.02735,-0.00028 -0.04102,0zM44.97461,27c-0.44968,0.01124 -0.83651,0.32135 -0.94531,0.75781l-2,8c-0.07458,0.29879 -0.00734,0.61527 0.18228,0.85793c0.18962,0.24265 0.48047,0.38441 0.78842,0.38426h20c0.30796,0.00015 0.5988,-0.14161 0.78842,-0.38426c0.18962,-0.24265 0.25686,-0.55914 0.18228,-0.85793l-2,-8c-0.11121,-0.44551 -0.51153,-0.75803 -0.9707,-0.75781h-5c-0.55228,0 -1,0.44772 -1,1c0,0.55228 0.44772,1 1,1h4.21875l1.5,6h-17.4375l1.5,-6h2.21875c0.55228,0 1,-0.44772 1,-1c0,-0.55228 -0.44772,-1 -1,-1h-3c-0.00846,-0.00011 -0.01693,-0.00011 -0.02539,0zM50.7168,38.01953c-0.41226,-0.00366 -0.78452,0.24606 -0.9375,0.62891c-0.5179,1.40283 -1.19971,2.73957 -2.03125,3.98242c-0.20635,0.3064 -0.22697,0.70159 -0.05365,1.0278c0.17333,0.32621 0.51237,0.5303 0.88177,0.53079c0.33223,-0.00044 0.64255,-0.16584 0.82813,-0.44141c0.92024,-1.37233 1.67484,-2.84874 2.24805,-4.39844c0.10648,-0.30447 0.05956,-0.6416 -0.12601,-0.90543c-0.18557,-0.26382 -0.487,-0.42194 -0.80954,-0.42465zM13.28516,38.02148c-0.32289,0.00208 -0.6249,0.15994 -0.81092,0.42386c-0.18602,0.26392 -0.23317,0.60142 -0.12658,0.90622c0.94158,2.52038 2.36151,4.83498 4.18164,6.81641c0.18911,0.20517 0.45534,0.32201 0.73438,0.32227h0.00391c0.39573,-0.00185 0.75315,-0.23689 0.91163,-0.59951c0.15849,-0.36261 0.08822,-0.78458 -0.17921,-1.07627c-1.64519,-1.79196 -2.9285,-3.88504 -3.7793,-6.16406c-0.15272,-0.38218 -0.52399,-0.63176 -0.93555,-0.62891zM23,44c-0.89849,0.0334 -1.75514,0.38826 -2.41406,1l-4.67383,4.67773c-0.3741,0.39318 -0.36639,1.01295 0.01736,1.3967c0.38375,0.38375 1.00353,0.39146 1.3967,0.01736l4.67383,-4.67773c0.26146,-0.21603 0.57551,-0.3589 0.91016,-0.41406l10.08984,0.91211v1.08789c0,1.10457 -0.89543,2 -2,2h-4c-0.55228,0 -1,0.44772 -1,1c0,0.55228 0.44772,1 1,1h10.61914c0.26151,0.00154 0.51321,-0.09942 0.70117,-0.28125l5.16602,-5.02148c0.34444,-0.40331 0.83621,-0.65166 1.36523,-0.68945c0.52906,-0.0463 1.05422,0.12429 1.45508,0.47266c0.50264,0.43714 0.96601,0.91749 1.38477,1.43555l-7.17383,7.38477c-0.3796,0.44334 -0.93393,0.69875 -1.51758,0.69922h-15.76367c-0.55228,0 -1,0.44772 -1,1c0,0.55228 0.44772,1 1,1h15.76367c1.14884,0.00659 2.24377,-0.4867 3,-1.35156l7.71875,-7.94922c0.32834,-0.33718 0.37714,-0.85767 0.11719,-1.25c-0.63761,-0.91977 -1.38902,-1.75518 -2.23633,-2.48633c-0.80503,-0.68995 -1.85105,-1.03207 -2.9082,-0.95117c-1.02862,0.06954 -1.98786,0.54354 -2.66797,1.31836l-4.80859,4.66992h-2.75195c0.35282,-0.60741 0.53816,-1.29756 0.53711,-2v-2c0.00219,-0.51834 -0.39205,-0.95242 -0.9082,-1zM13.01563,50.00586c-0.2706,-0.00416 -0.53134,0.10155 -0.72266,0.29297l-3,2.99414c-0.39042,0.39051 -0.39042,1.02356 0,1.41406l9,9c0.18751,0.18755 0.44183,0.29293 0.70703,0.29297c0.2652,-0.00004 0.51953,-0.10542 0.70703,-0.29297l3,-2.99414c0.39042,-0.39051 0.39042,-1.02356 0,-1.41406l-9,-9c-0.18366,-0.18377 -0.43163,-0.28884 -0.69141,-0.29297zM13,52.41992l7.58594,7.58594l-1.58594,1.58203l-7.58594,-7.58789z"></path></g></g></svg>