<svg version="1.1" xmlns="http://www.w3.org/2000/svg" xmlns:xlink="http://www.w3.org/1999/xlink" width="24px" height="24px" viewBox="0,0,256,256"><g fill="#dbb7ff" fill-rule="nonzero" stroke="none" stroke-width="1" stroke-linecap="butt" stroke-linejoin="miter" stroke-miterlimit="10" stroke-dasharray="" stroke-dashoffset="0" font-family="none" font-weight="none" font-size="none" text-anchor="none" style="mix-blend-mode: normal"><g transform="scale(2,2)"><path d="M59,1c-31.98,0 -58,26.02 -58,58c0,30.13 23.49977,55.53008 53.50977,57.83008c1.48,0.11 2.99023,0.16992 4.49023,0.16992c1.66,0 3,-1.34 3,-3c0,-1.13 -0.63078,-2.09938 -1.55078,-2.60938c-9.31,-9.51 -15.77977,-21.1014 -19.00977,-33.6914c4.62,-1.04 9.34086,-1.67891 14.13086,-1.87891c1.66,-0.07 2.93914,-1.47109 2.86914,-3.12109c-0.07,-1.66 -1.47914,-2.93914 -3.11914,-2.86914c-5.12,0.22 -10.17109,0.89 -15.12109,2c-0.72,-4.2 -1.10937,-8.49008 -1.10937,-12.83008c0,-4.34 0.38938,-8.63008 1.10938,-12.83008c6.12,1.37 12.42078,2.08008 18.80078,2.08008c6.36,0 12.6307,-0.70055 18.7207,-2.06055c0.34,1.95 0.60906,3.92039 0.78906,5.90039c0.14,1.56 1.45047,2.73047 2.98047,2.73047c0.09,0 0.1793,0.00023 0.2793,-0.00977c1.65,-0.15 2.87094,-1.60977 2.71094,-3.25977c-0.21,-2.31 -0.51969,-4.60086 -0.92969,-6.88086c7.53,-2.25 14.73922,-5.54008 21.44922,-9.83008c3.24,6.12 5.30961,12.9607 5.84961,20.2207c0.12,1.65 1.5407,2.89953 3.2207,2.76953c1.65,-0.12 2.88953,-1.5607 2.76953,-3.2207c-2.26,-30.06 -27.65984,-53.60937 -57.83984,-53.60937zM66.33984,7.5293c14.63,2.1 27.45055,10.37992 35.56055,22.16992c-6.15,3.95 -12.75039,6.99156 -19.65039,9.10156c-2.95,-11.42 -8.38016,-22.13148 -15.91016,-31.27148zM51.57031,7.53906c-7.6,9.19 -12.99969,19.8207 -15.92969,31.2207c-6.87,-2.11 -13.44055,-5.15008 -19.56055,-9.08008c8.05,-11.74 20.78023,-20.03063 35.49023,-22.14063zM58.96094,8.21094c8.41,9.12 14.40828,20.19937 17.48828,32.10937c-5.68,1.27 -11.51922,1.92969 -17.44922,1.92969c-5.97,0 -11.85055,-0.65922 -17.56055,-1.94922c3.05,-11.9 9.01148,-22.88984 17.52148,-32.08984zM12.98047,34.82031c6.69,4.28 13.87867,7.56031 21.38867,9.82031c-0.84,4.7 -1.28906,9.48938 -1.28906,14.35938c0,4.86 0.44906,9.65937 1.28906,14.35938c-7.51,2.25 -14.68961,5.54078 -21.34961,9.80078c-3.84,-7.26 -6.01953,-15.49016 -6.01953,-24.16016c0,-8.73 2.17047,-16.94969 5.98047,-24.17969zM94,61c-18.2,0 -33,14.8 -33,33c0,18.2 14.8,33 33,33c18.2,0 33,-14.8 33,-33c0,-18.2 -14.8,-33 -33,-33zM94,67c14.89,0 27,12.11 27,27c0,14.89 -12.11,27 -27,27c-14.89,0 -27,-12.11 -27,-27c0,-14.89 12.11,-27 27,-27zM35.64063,79.25c2.93,11.4 8.32969,22.02094 15.92969,31.21094c-14.71,-2.12 -27.40945,-10.46188 -35.43945,-22.17188c6.09,-3.91 12.64977,-6.93906 19.50977,-9.03906zM94,82c-1.66,0 -3,1.34 -3,3v18c0,1.66 1.34,3 3,3c1.66,0 3,-1.34 3,-3v-18c0,-1.66 -1.34,-3 -3,-3z"></path></g></g></svg>